<svg xmlns="http://www.w3.org/2000/svg" xmlns:xlink="http://www.w3.org/1999/xlink" xmlns:lucid="lucid" width="1265.53" height="849.8"><g transform="translate(-1189.4666190225203 180)" lucid:page-tab-id="0_0"><path d="M2131 96c-28.17 0-51-25.07-51-56 0-24.74 13.8-45.6 35.24-53.26C2114-86 2199-100 2233-72c17-42 102-28 102 14 51-14 102 42 68 112 34 56 0 126-68 98-17 36.4-85 36.4-102 0-34 28-102 14-102-56z" stroke="#006ec2" stroke-width="2" fill="#fff"/><path d="M1310.2 80c5.4 0 9.8-4.36 9.8-9.65v-1.13c-3.96-30.55-21.34-55.34-55-55.34s-51.48 21.03-54.9 55.4c-.1 0-.1.08-.1.08-.44 5.35 3.52 10.1 8.9 10.64h91.3z" stroke="#000" stroke-opacity="0" fill="url(#a)"/><path d="M1264.97 21.16c-6.2 0-11.5-1.54-16.7-4.88l16.7 42.84 16.42-42.58c-5.18 3.2-10.34 4.67-16.43 4.62z" stroke="#000" stroke-opacity="0" fill="#fff" fill-opacity=".8"/><path d="M1295.9-9.46c0 16.86-13.8 30.54-30.8 30.54s-30.8-13.68-30.8-30.54S1248.1-40 1265.1-40s30.8 13.68 30.8 30.54z" stroke="#000" stroke-opacity="0" fill="url(#b)"/><use xlink:href="#c" transform="matrix(1,0,0,1,1180,89) translate(61.55 14.4)"/><path d="M1700.12 423.74c-33.12 0-59.88-9.95-59.76-21.98l-.36 116.26c0 11.9 26.28 21.7 58.92 21.98h.84c33.12.14 59.88-9.68 59.88-21.7l.36-116.26c0 12.16-26.88 21.84-59.88 21.7z" stroke="#000" stroke-opacity="0" fill="url(#d)"/><path d="M1759.94 402c0 12.07-26.8 21.77-59.82 21.68-33.14-.1-59.82-9.92-59.82-22 0-12.07 26.8-21.77 59.82-21.68 33.14.1 59.82 9.92 59.82 22" stroke="#000" stroke-opacity="0" fill="#e6e6e6"/><path d="M1746.08 400.22c0 7.7-20.65 13.87-46 13.8-25.33-.04-45.8-6.34-45.8-14.02 0-7.7 20.56-13.86 45.9-13.8 25.43.05 45.9 6.34 45.9 14.02" stroke="#000" stroke-opacity="0" fill="#50e6ff"/><path d="M1700.12 403.24c-12.94-.33-24 1.23-36.36 5.18 12.3 4.14 23.34 5.8 36.36 5.5 12.94.38 24-1.24 36.36-5.32-12.36-4-23.34-5.63-36.36-5.36z" stroke="#000" stroke-opacity="0" fill="#198ab3"/><path d="M1693.52 497.92l-5.65 5.68c-.97.97-2.52.97-3.45 0l-22.44-22.5c-.97-.96-1-2.53-.03-3.5l3.9-3.92c.97-.97 2.52-.97 3.5 0l24.17 24.24z" stroke="#000" stroke-opacity="0" stroke-width=".71" fill="#fff"/><path d="M1684.56 503.6l-5.68-5.64 51.63-51.8c.97-.96 2.52-.96 3.48 0l3.94 3.93c.96.93.96 2.52 0 3.46l-49.9 50.05c-.95.96-2.5.96-3.46 0z" stroke="#000" stroke-opacity="0" stroke-width=".71" fill="#f2f2f2"/><use xlink:href="#e" transform="matrix(1,0,0,1,1610,549) translate(18.57499999999999 14.4)"/><use xlink:href="#f" transform="matrix(1,0,0,1,1610,549) translate(109.475 14.4)"/><use xlink:href="#g" transform="matrix(1,0,0,1,1610,549) translate(51.525 36)"/><path d="M1748.12-80H1652c-6.6 0-12 3.96-12 8.82V100h120V-71.18c0-4.86-5.4-8.82-11.88-8.82zm-6 162.36H1658v-8.82h84.12v8.82zm0-17.46H1658v-8.82h84.12v8.82zm0-109.8H1658v-8.82h84.12v8.82z" stroke="#000" stroke-opacity="0" fill="#006dc0"/><use xlink:href="#h" transform="matrix(1,0,0,1,1610,109) translate(25.64999999999999 14.4)"/><use xlink:href="#i" transform="matrix(1,0,0,1,1610,109) translate(83.55 14.4)"/><path d="M2215.7-.88c-1.45.1-2.7-1-2.8-2.45-.1-1.46 1-2.72 2.46-2.8l16.4-2.3c1.44-.2 2.77.8 2.97 2.24l.02.06c.2 1.47-.8 2.84-2.3 3.06l-16.4 2.2z" stroke="#000" stroke-opacity="0" fill="#4285f4"/><path d="M2235.8-3.24l1.65-5.08 29.45 9.64-1.64 5.08-29.46-9.64z" stroke="#000" stroke-opacity="0" stroke-width=".31" fill="#4285f4"/><path d="M2234.95-4.1h-.78c-1.38-.43-2.13-1.9-1.7-3.27l5.9-20.25c.44-1.36 1.9-2.12 3.26-1.7 1.38.34 2.2 1.73 1.87 3.1 0 .02 0 .07-.02.1L2237.5-6.1c-.3 1.2-1.32 1.98-2.55 2zM2271.45 5.76c-.92 0-1.72-.42-2.2-1.2-.57-.86-.57-1.92 0-2.77l11.9-30.04c.64-1.2 2.05-1.78 3.36-1.28 1.3.5 2 1.84 1.64 3.2l-11.97 30.1c-.37 1.2-1.45 2.02-2.72 1.98z" stroke="#000" stroke-opacity="0" fill="#4285f4"/><path d="M2209.94 48.7l27.92-22.33 3.32 4.16-27.92 22.33-3.32-4.16z" stroke="#000" stroke-opacity="0" stroke-width=".78" fill="#4285f4"/><path d="M2270.1 6.82l2.07-4.9 25.84 11.3-2.1 4.83-25.8-11.23zM2269.2 34.36l3.7-3.9 22.93 21.66-3.7 3.82-22.92-21.58z" stroke="#000" stroke-opacity="0" fill="#4285f4"/><path d="M2232.22-4.58l5.22-1.05 5.75 28.25-5.24 1.06-5.74-28.26z" stroke="#000" stroke-opacity="0" stroke-width=".98" fill="#4285f4"/><path d="M2240.54 27.37l29.2-25.58 3.56 3.98-29.2 25.58-3.56-4z" stroke="#000" stroke-opacity="0" fill="#4285f4"/><path d="M2267.42 31.79l1.7-28.22 5.34.35-1.78 28.2-5.26-.35zM2250.52 29c0 5.33-4.33 9.66-9.66 9.66-5.34 0-9.67-4.33-9.67-9.67s4.32-9.67 9.66-9.67c5.33 0 9.66 4.33 9.66 9.66z" stroke="#000" stroke-opacity="0" fill="#4285f4"/><path d="M2283.3 4.3c0 6.3-5.14 11.44-11.47 11.44-6.32 0-11.45-5.13-11.45-11.45 0-6.34 5.13-11.47 11.45-11.47 6.33 0 11.46 5.13 11.46 11.46zM2277.7 34c0 3.3-2.68 5.97-5.98 5.97-3.3 0-5.97-2.67-5.97-5.97s2.68-5.97 5.97-5.97c3.3 0 5.97 2.68 5.97 5.97zM2241.05-7.68c0 3.9-3.16 7.04-7.04 7.04s-7.03-3.15-7.03-7.04c0-3.9 3.15-7.04 7.04-7.04 3.9 0 7.05 3.15 7.05 7.04z" stroke="#000" stroke-opacity="0" fill="#4285f4"/><path d="M2262.04-48h-14.2v28.42h14.2V-48zM2290.58-48h-14.2v28.42h14.2V-48zM2233.62-48h-14.2v28.42h14.2V-48zM2262.04 51.58h-14.2V80h14.2V51.58zM2290.58 51.58h-14.2V80h14.2V51.58zM2233.62 51.58h-14.2V80h14.2V51.58zM2219.42 8.83H2191v14.2h28.42V8.84zM2219.42-19.58H2191v14.2h28.42v-14.2zM2219.42 37.38H2191v14.2h28.42v-14.2zM2319 8.83h-28.42v14.2H2319V8.84zM2319-19.58h-28.42v14.2H2319v-14.2zM2319 37.38h-28.42v14.2H2319v-14.2z" stroke="#000" stroke-opacity="0" fill="#669df6"/><path d="M2297.72-33.8h-85.44c-3.9 0-7.07 3.2-7.07 7.08v85.44c0 3.88 3.2 7.07 7.08 7.07h85.44c3.9 0 7.07-3.2 7.07-7.08v-85.44c0-3.9-3.2-7.07-7.08-7.07zm-7.17 81.57c0 2.1-1.7 3.78-3.78 3.78h-63.54c-2.1 0-3.78-1.7-3.78-3.78v-63.54c0-2.1 1.7-3.78 3.78-3.78h63.54c2.1 0 3.78 1.7 3.78 3.78z" stroke="#000" stroke-opacity="0" fill="#669df6"/><use xlink:href="#j" transform="matrix(1,0,0,1,2191,85) translate(9.802469135802482 17.77777777777778)"/><use xlink:href="#k" transform="matrix(1,0,0,1,2191,85) translate(73.87654320987654 17.77777777777778)"/><path d="M2045.9 360h70.68v85.7h-70.68v-10.1h-5.9v-3.86h5.9v-6.5h-5.9v-3.87h5.9v-6.34h-5.9v-3.86h5.9v-6.26h-5.9v-3.84h5.9v-6.43h-5.9v-3.86h5.9v-6.43h-5.9v-3.94h5.9v-6.34h-5.9v-3.95h5.9zm3.98 3.94v6.17h6.13v3.96h-6.12v6.34h6.13v3.94h-6.12v6.43h6.13v3.86h-6.12v6.43h6.13v3.85h-6.12v6.27h6.13v3.86h-6.12v6.34h6.13v3.86h-6.12v6.5h6.13v3.87h-6.12v6.26h62.72v-77.92zm13.63 22.55v-3.87h39.14v3.86zm0-12.44v-3.95h39.14v3.96zm0 24.77v-3.86h39.14v3.86zm0 12.43v-3.86h19.7v3.86z" stroke="#000" stroke-opacity="0" fill="#006ec2"/><use xlink:href="#l" transform="matrix(1,0,0,1,2009.9999999999998,454.7142857142857) translate(35.525 14.4)"/><use xlink:href="#m" transform="matrix(1,0,0,1,2009.9999999999998,454.7142857142857) translate(16.574999999999996 36)"/><use xlink:href="#n" transform="matrix(1,0,0,1,2009.9999999999998,454.7142857142857) translate(40.025 57.6)"/><use xlink:href="#o" transform="matrix(1,0,0,1,2009.9999999999998,454.7142857142857) translate(23.049999999999997 79.20000000000002)"/><path d="M1999.5 460h-192.63M1999.5 460h.5" stroke="#27292d" fill="none"/><path d="M1800.98 460l12.9-7.64v15.28z" stroke="#27292d" fill="#27292d"/><path d="M1599.5-20h-252.63M1599.5-20h.5" stroke="#27292d" fill="none"/><path d="M1340.98-20l12.9-7.64v15.28z" stroke="#27292d" fill="#27292d"/><path d="M1660 140.5v212.63M1660 140.5v-.5" stroke="#27292d" fill="none"/><path d="M1660 359.02l-7.64-12.9h15.28z" stroke="#27292d" fill="#27292d"/><path d="M1593.13 60H1340.5" stroke="#27292d" fill="none"/><path d="M1599.02 60l-12.9 7.64V52.36z" stroke="#27292d" fill="#27292d"/><path d="M1340.5 60h-.5M1740 359.5V146.87M1740 359.5v.5" stroke="#27292d" fill="none"/><path d="M1740 140.98l7.64 12.9h-15.28z" stroke="#27292d" fill="#27292d"/><path d="M2147.04 360h70.68v85.7h-70.68v-10.1h-5.9v-3.86h5.9v-6.5h-5.9v-3.87h5.9v-6.34h-5.9v-3.86h5.9v-6.26h-5.9v-3.84h5.9v-6.43h-5.9v-3.86h5.9v-6.43h-5.9v-3.94h5.9v-6.34h-5.9v-3.95h5.9zm3.98 3.94v6.17h6.13v3.96H2151v6.34h6.13v3.94H2151v6.43h6.13v3.86H2151v6.43h6.13v3.85H2151v6.27h6.13v3.86H2151v6.34h6.13v3.86H2151v6.5h6.13v3.87H2151v6.26h62.72v-77.92zm13.63 22.55v-3.87h39.13v3.86zm0-12.44v-3.95h39.13v3.96zm0 24.77v-3.86h39.13v3.86zm0 12.43v-3.86h19.68v3.86z" stroke="#000" stroke-opacity="0" fill="#006ec2"/><use xlink:href="#l" transform="matrix(1,0,0,1,2111.1406844106464,454.7142857142857) translate(35.525 14.4)"/><use xlink:href="#m" transform="matrix(1,0,0,1,2111.1406844106464,454.7142857142857) translate(16.574999999999996 36)"/><use xlink:href="#n" transform="matrix(1,0,0,1,2111.1406844106464,454.7142857142857) translate(40.025 57.6)"/><use xlink:href="#o" transform="matrix(1,0,0,1,2111.1406844106464,454.7142857142857) translate(23.049999999999997 79.20000000000002)"/><path d="M2349.32 360H2420v85.7h-70.68v-10.1h-5.9v-3.86h5.9v-6.5h-5.9v-3.87h5.9v-6.34h-5.9v-3.86h5.9v-6.26h-5.9v-3.84h5.9v-6.43h-5.9v-3.86h5.9v-6.43h-5.9v-3.94h5.9v-6.34h-5.9v-3.95h5.9zm3.98 3.94v6.17h6.13v3.96h-6.13v6.34h6.13v3.94h-6.13v6.43h6.13v3.86h-6.13v6.43h6.13v3.85h-6.13v6.27h6.13v3.86h-6.13v6.34h6.13v3.86h-6.13v6.5h6.13v3.87h-6.13v6.26h62.72v-77.92zm13.63 22.55v-3.87h39.13v3.86zm0-12.44v-3.95h39.13v3.96zm0 24.77v-3.86h39.13v3.86zm0 12.43v-3.86h19.68v3.86z" stroke="#000" stroke-opacity="0" fill="#006ec2"/><use xlink:href="#l" transform="matrix(1,0,0,1,2313.4220532319396,454.7142857142857) translate(35.525 14.4)"/><use xlink:href="#m" transform="matrix(1,0,0,1,2313.4220532319396,454.7142857142857) translate(16.574999999999996 36)"/><use xlink:href="#n" transform="matrix(1,0,0,1,2313.4220532319396,454.7142857142857) translate(40.025 57.6)"/><use xlink:href="#o" transform="matrix(1,0,0,1,2313.4220532319396,454.7142857142857) translate(23.049999999999997 79.20000000000002)"/><path d="M2248.18 360h70.68v85.7h-70.68v-10.1h-5.9v-3.86h5.9v-6.5h-5.9v-3.87h5.9v-6.34h-5.9v-3.86h5.9v-6.26h-5.9v-3.84h5.9v-6.43h-5.9v-3.86h5.9v-6.43h-5.9v-3.94h5.9v-6.34h-5.9v-3.95h5.9zm3.98 3.94v6.17h6.13v3.96h-6.14v6.34h6.13v3.94h-6.14v6.43h6.13v3.86h-6.14v6.43h6.13v3.85h-6.14v6.27h6.13v3.86h-6.14v6.34h6.13v3.86h-6.14v6.5h6.13v3.87h-6.14v6.26h62.72v-77.92zm13.63 22.55v-3.87h39.12v3.86zm0-12.44v-3.95h39.12v3.96zm0 24.77v-3.86h39.12v3.86zm0 12.43v-3.86h19.67v3.86z" stroke="#000" stroke-opacity="0" fill="#006ec2"/><use xlink:href="#l" transform="matrix(1,0,0,1,2212.281368821293,454.7142857142857) translate(35.525 14.4)"/><use xlink:href="#m" transform="matrix(1,0,0,1,2212.281368821293,454.7142857142857) translate(16.574999999999996 36)"/><use xlink:href="#n" transform="matrix(1,0,0,1,2212.281368821293,454.7142857142857) translate(40.025 57.6)"/><use xlink:href="#o" transform="matrix(1,0,0,1,2212.281368821293,454.7142857142857) translate(23.049999999999997 79.20000000000002)"/><path d="M2045.9 474.3h70.68V560h-70.68v-10.1h-5.9v-3.87h5.9v-6.52h-5.9v-3.84h5.9v-6.35h-5.9v-3.84h5.9v-6.26h-5.9v-3.86h5.9v-6.43h-5.9v-3.84h5.9v-6.43h-5.9v-3.94h5.9v-6.36h-5.9v-3.94h5.9zm3.98 3.93v6.17h6.13v3.94h-6.12v6.35h6.13v3.93h-6.12v6.43h6.13v3.85h-6.12v6.44h6.13v3.86h-6.12v6.26h6.13v3.85h-6.12v6.36h6.13v3.85h-6.12v6.53h6.13v3.86h-6.12v6.24h62.72v-77.9zm13.63 22.54v-3.86h39.14v3.87zm0-12.43v-3.94h39.14v3.94zm0 24.77v-3.84h39.14v3.85zm0 12.44v-3.85h19.7v3.84z" stroke="#000" stroke-opacity="0" fill="#006ec2"/><use xlink:href="#l" transform="matrix(1,0,0,1,2009.9999999999998,569) translate(35.525 14.4)"/><use xlink:href="#m" transform="matrix(1,0,0,1,2009.9999999999998,569) translate(16.574999999999996 36)"/><use xlink:href="#n" transform="matrix(1,0,0,1,2009.9999999999998,569) translate(40.025 57.6)"/><use xlink:href="#o" transform="matrix(1,0,0,1,2009.9999999999998,569) translate(23.049999999999997 79.20000000000002)"/><path d="M2147.04 474.3h70.68V560h-70.68v-10.1h-5.9v-3.87h5.9v-6.52h-5.9v-3.84h5.9v-6.35h-5.9v-3.84h5.9v-6.26h-5.9v-3.86h5.9v-6.43h-5.9v-3.84h5.9v-6.43h-5.9v-3.94h5.9v-6.36h-5.9v-3.94h5.9zm3.98 3.93v6.17h6.13v3.94H2151v6.35h6.13v3.93H2151v6.43h6.13v3.85H2151v6.44h6.13v3.86H2151v6.26h6.13v3.85H2151v6.36h6.13v3.85H2151v6.53h6.13v3.86H2151v6.24h62.72v-77.9zm13.63 22.54v-3.86h39.13v3.87zm0-12.43v-3.94h39.13v3.94zm0 24.77v-3.84h39.13v3.85zm0 12.44v-3.85h19.68v3.84z" stroke="#000" stroke-opacity="0" fill="#006ec2"/><use xlink:href="#l" transform="matrix(1,0,0,1,2111.1406844106464,569) translate(35.525 14.4)"/><use xlink:href="#m" transform="matrix(1,0,0,1,2111.1406844106464,569) translate(16.574999999999996 36)"/><use xlink:href="#n" transform="matrix(1,0,0,1,2111.1406844106464,569) translate(40.025 57.6)"/><use xlink:href="#o" transform="matrix(1,0,0,1,2111.1406844106464,569) translate(23.049999999999997 79.20000000000002)"/><path d="M2349.32 474.3H2420V560h-70.68v-10.1h-5.9v-3.87h5.9v-6.52h-5.9v-3.84h5.9v-6.35h-5.9v-3.84h5.9v-6.26h-5.9v-3.86h5.9v-6.43h-5.9v-3.84h5.9v-6.43h-5.9v-3.94h5.9v-6.36h-5.9v-3.94h5.9zm3.98 3.93v6.17h6.13v3.94h-6.13v6.35h6.13v3.93h-6.13v6.43h6.13v3.85h-6.13v6.44h6.13v3.86h-6.13v6.26h6.13v3.85h-6.13v6.36h6.13v3.85h-6.13v6.53h6.13v3.86h-6.13v6.24h62.72v-77.9zm13.63 22.54v-3.86h39.13v3.87zm0-12.43v-3.94h39.13v3.94zm0 24.77v-3.84h39.13v3.85zm0 12.44v-3.85h19.68v3.84z" stroke="#000" stroke-opacity="0" fill="#006ec2"/><use xlink:href="#l" transform="matrix(1,0,0,1,2313.4220532319396,569) translate(35.525 14.4)"/><use xlink:href="#m" transform="matrix(1,0,0,1,2313.4220532319396,569) translate(16.574999999999996 36)"/><use xlink:href="#n" transform="matrix(1,0,0,1,2313.4220532319396,569) translate(40.025 57.6)"/><use xlink:href="#o" transform="matrix(1,0,0,1,2313.4220532319396,569) translate(23.049999999999997 79.20000000000002)"/><path d="M2248.18 474.3h70.68V560h-70.68v-10.1h-5.9v-3.87h5.9v-6.52h-5.9v-3.84h5.9v-6.35h-5.9v-3.84h5.9v-6.26h-5.9v-3.86h5.9v-6.43h-5.9v-3.84h5.9v-6.43h-5.9v-3.94h5.9v-6.36h-5.9v-3.94h5.9zm3.98 3.93v6.17h6.13v3.94h-6.14v6.35h6.13v3.93h-6.14v6.43h6.13v3.85h-6.14v6.44h6.13v3.86h-6.14v6.26h6.13v3.85h-6.14v6.36h6.13v3.85h-6.14v6.53h6.13v3.86h-6.14v6.24h62.72v-77.9zm13.63 22.54v-3.86h39.12v3.87zm0-12.43v-3.94h39.12v3.94zm0 24.77v-3.84h39.12v3.85zm0 12.44v-3.85h19.67v3.84z" stroke="#000" stroke-opacity="0" fill="#006ec2"/><use xlink:href="#l" transform="matrix(1,0,0,1,2212.281368821293,569) translate(35.525 14.4)"/><use xlink:href="#m" transform="matrix(1,0,0,1,2212.281368821293,569) translate(16.574999999999996 36)"/><use xlink:href="#n" transform="matrix(1,0,0,1,2212.281368821293,569) translate(40.025 57.6)"/><use xlink:href="#o" transform="matrix(1,0,0,1,2212.281368821293,569) translate(23.049999999999997 79.20000000000002)"/><path d="M2059.5-20h-252.63M2059.5-20h.5" stroke="#27292d" fill="none"/><path d="M1800.98-20l12.9-7.64v15.28z" stroke="#27292d" fill="#27292d"/><path d="M2053.13 60H1800.5" stroke="#27292d" fill="none"/><path d="M2059.02 60l-12.9 7.64V52.36z" stroke="#27292d" fill="#27292d"/><path d="M1800.5 60h-.5" stroke="#27292d" fill="none"/><path d="M1480 216a6 6 0 0 1 6-6h228a6 6 0 0 1 6 6v68a6 6 0 0 1-6 6h-228a6 6 0 0 1-6-6z" fill="none"/><g><use xlink:href="#p" transform="matrix(1,0,0,1,1480,210) translate(69.14197530864197 30.22222222222222)"/><use xlink:href="#q" transform="matrix(1,0,0,1,1480,210) translate(81.33024691358025 59.55555555555556)"/></g><path d="M1700 226a6 6 0 0 1 6-6h228a6 6 0 0 1 6 6v48a6 6 0 0 1-6 6h-228a6 6 0 0 1-6-6z" fill="none"/><g><use xlink:href="#r" transform="matrix(1,0,0,1,1700,220) translate(61.67283950617282 20.22222222222222)"/><use xlink:href="#s" transform="matrix(1,0,0,1,1700,220) translate(65.03395061728395 49.55555555555556)"/></g><path d="M1580 566a6 6 0 0 1 6-6h228a6 6 0 0 1 6 6v48a6 6 0 0 1-6 6h-228a6 6 0 0 1-6-6z" fill="none"/><g><use xlink:href="#t" transform="matrix(1,0,0,1,1580,560) translate(21.55555555555557 35.33333333333333)"/><use xlink:href="#u" transform="matrix(1,0,0,1,1580,560) translate(104.44444444444444 35.33333333333333)"/></g><path d="M2135-154a6 6 0 0 1 6-6h228a6 6 0 0 1 6 6v48a6 6 0 0 1-6 6h-228a6 6 0 0 1-6-6z" fill="none"/><g><use xlink:href="#v" transform="matrix(1,0,0,1,2135,-160) translate(71.11111111111111 35.33333333333333)"/><use xlink:href="#w" transform="matrix(1,0,0,1,2135,-160) translate(143.7037037037037 35.33333333333333)"/></g><path d="M2225.57 86a6 6 0 0 1 6-6h46.86a6 6 0 0 1 6 6v48a6 6 0 0 1-6 6h-46.86a6 6 0 0 1-6-6z" fill="none"/><g><use xlink:href="#x" transform="matrix(1,0,0,1,2225.570342205323,80) translate(5.768518518518519 34.888888888888886)"/></g><path d="M1400-54a6 6 0 0 1 6-6h148a6 6 0 0 1 6 6v28a6 6 0 0 1-6 6h-148a6 6 0 0 1-6-6z" fill="none"/><g><use xlink:href="#y" transform="matrix(1,0,0,1,1400,-60) translate(25.03395061728395 24.88888888888889)"/></g><path d="M1400 66a6 6 0 0 1 6-6h148a6 6 0 0 1 6 6v28a6 6 0 0 1-6 6h-148a6 6 0 0 1-6-6z" fill="none"/><g><use xlink:href="#z" transform="matrix(1,0,0,1,1400,60) translate(31.14506172839505 24.88888888888889)"/></g><path d="M1860 66a6 6 0 0 1 6-6h148a6 6 0 0 1 6 6v28a6 6 0 0 1-6 6h-148a6 6 0 0 1-6-6z" fill="none"/><g><use xlink:href="#A" transform="matrix(1,0,0,1,1860,60) translate(40.68518518518519 24.88888888888889)"/></g><path d="M1840-54a6 6 0 0 1 6-6h168a6 6 0 0 1 6 6v28a6 6 0 0 1-6 6h-168a6 6 0 0 1-6-6z" fill="none"/><g><use xlink:href="#B" transform="matrix(1,0,0,1,1840,-60) translate(7.907407407407405 24.88888888888889)"/><use xlink:href="#C" transform="matrix(1,0,0,1,1840,-60) translate(62.160493827160494 24.88888888888889)"/></g><path d="M1620 300c0 11.05-8.95 20-20 20s-20-8.95-20-20 8.95-20 20-20 20 8.95 20 20z" stroke="#282c33" stroke-width="2" fill="#fff"/><g><use xlink:href="#D" transform="matrix(1,0,0,1,1580,280) translate(13.83216049382716 25.27777777777778)"/></g><path d="M1400 110c0 11.05-8.95 20-20 20s-20-8.95-20-20 8.95-20 20-20 20 8.95 20 20z" stroke="#282c33" stroke-width="2" fill="#fff"/><g><use xlink:href="#E" transform="matrix(1,0,0,1,1360,90) translate(13.83216049382716 25.27777777777778)"/></g><path d="M2020 110c0 11.05-8.95 20-20 20s-20-8.95-20-20 8.95-20 20-20 20 8.95 20 20z" stroke="#282c33" stroke-width="2" fill="#fff"/><g><use xlink:href="#F" transform="matrix(1,0,0,1,1980,90) translate(13.83216049382716 25.27777777777778)"/></g><path d="M1880-100c0 11.05-8.95 20-20 20s-20-8.95-20-20 8.95-20 20-20 20 8.95 20 20z" stroke="#282c33" stroke-width="2" fill="#fff"/><g><use xlink:href="#G" transform="matrix(1,0,0,1,1840,-120) translate(13.83216049382716 25.27777777777778)"/></g><path d="M2100 566a6 6 0 0 1 6-6h244.58a6 6 0 0 1 6 6v48a6 6 0 0 1-6 6H2106a6 6 0 0 1-6-6z" fill="none"/><g><use xlink:href="#H" transform="matrix(1,0,0,1,2100,560) translate(4.944444444444471 35.33333333333333)"/><use xlink:href="#I" transform="matrix(1,0,0,1,2100,560) translate(117.3888888888889 35.33333333333333)"/></g><defs><linearGradient gradientUnits="userSpaceOnUse" id="a" x1="1265" y1="-54.65" x2="1265" y2="109.67"><stop offset="22%" stop-color="#32d4f5" stop-opacity=".8"/><stop offset="100%" stop-color="#198ab3" stop-opacity=".8"/></linearGradient><linearGradient gradientUnits="userSpaceOnUse" id="b" x1="1260.2" y1="-45.24" x2="1272.09" y2="116.16"><stop offset="22%" stop-color="#32d4f5" stop-opacity=".8"/><stop offset="100%" stop-color="#198ab3" stop-opacity=".8"/></linearGradient><path fill-opacity="0" d="M232-93c-1 65-40 97-104 97C67 4 28-28 28-90v-158h33c8 89-33 224 67 224 102 0 64-133 71-224h33v155" id="J"/><path fill-opacity="0" d="M135-143c-3-34-86-38-87 0 15 53 115 12 119 90S17 21 10-45l28-5c4 36 97 45 98 0-10-56-113-15-118-90-4-57 82-63 122-42 12 7 21 19 24 35" id="K"/><path fill-opacity="0" d="M100-194c63 0 86 42 84 106H49c0 40 14 67 53 68 26 1 43-12 49-29l28 8c-11 28-37 45-77 45C44 4 14-33 15-96c1-61 26-98 85-98zm52 81c6-60-76-77-97-28-3 7-6 17-6 28h103" id="L"/><path fill-opacity="0" d="M114-163C36-179 61-72 57 0H25l-1-190h30c1 12-1 29 2 39 6-27 23-49 58-41v29" id="M"/><g id="c"><use transform="matrix(0.05,0,0,0.05,0,0)" xlink:href="#J"/><use transform="matrix(0.05,0,0,0.05,12.950000000000001,0)" xlink:href="#K"/><use transform="matrix(0.05,0,0,0.05,21.950000000000003,0)" xlink:href="#L"/><use transform="matrix(0.05,0,0,0.05,31.950000000000003,0)" xlink:href="#M"/><use transform="matrix(0.05,0,0,0.05,37.900000000000006,0)" xlink:href="#K"/></g><linearGradient gradientUnits="userSpaceOnUse" id="d" x1="1640.13" y1="459.92" x2="1759.83" y2="460.28"><stop offset="0%" stop-color="#005ba1"/><stop offset="6.8%" stop-color="#0060a9"/><stop offset="35.6%" stop-color="#0071c8"/><stop offset="51.7%" stop-color="#0078d4"/><stop offset="64.2%" stop-color="#0074cd"/><stop offset="82%" stop-color="#006abb"/><stop offset="100%" stop-color="#005ba1"/></linearGradient><path fill-opacity="0" d="M30-248c87 1 191-15 191 75 0 78-77 80-158 76V0H30v-248zm33 125c57 0 124 11 124-50 0-59-68-47-124-48v98" id="N"/><path fill-opacity="0" d="M100-194c62-1 85 37 85 99 1 63-27 99-86 99S16-35 15-95c0-66 28-99 85-99zM99-20c44 1 53-31 53-75 0-43-8-75-51-75s-53 32-53 75 10 74 51 75" id="O"/><path fill-opacity="0" d="M85-194c31 0 48 13 60 33l-1-100h32l1 261h-30c-2-10 0-23-3-31C134-8 116 4 85 4 32 4 16-35 15-94c0-66 23-100 70-100zm9 24c-40 0-46 34-46 75 0 40 6 74 45 74 42 0 51-32 51-76 0-42-9-74-50-73" id="P"/><path fill-opacity="0" d="M84 4C-5 8 30-112 23-190h32v120c0 31 7 50 39 49 72-2 45-101 50-169h31l1 190h-30c-1-10 1-25-2-33-11 22-28 36-60 37" id="Q"/><path fill-opacity="0" d="M96-169c-40 0-48 33-48 73s9 75 48 75c24 0 41-14 43-38l32 2c-6 37-31 61-74 61-59 0-76-41-82-99-10-93 101-131 147-64 4 7 5 14 7 22l-32 3c-4-21-16-35-41-35" id="R"/><path fill-opacity="0" d="M59-47c-2 24 18 29 38 22v24C64 9 27 4 27-40v-127H5v-23h24l9-43h21v43h35v23H59v120" id="S"/><path fill-opacity="0" d="M24-231v-30h32v30H24zM24 0v-190h32V0H24" id="T"/><path fill-opacity="0" d="M117-194c89-4 53 116 60 194h-32v-121c0-31-8-49-39-48C34-167 62-67 57 0H25l-1-190h30c1 10-1 24 2 32 11-22 29-35 61-36" id="U"/><g id="e"><use transform="matrix(0.05,0,0,0.05,0,0)" xlink:href="#N"/><use transform="matrix(0.05,0,0,0.05,12,0)" xlink:href="#M"/><use transform="matrix(0.05,0,0,0.05,17.95,0)" xlink:href="#O"/><use transform="matrix(0.05,0,0,0.05,27.950000000000003,0)" xlink:href="#P"/><use transform="matrix(0.05,0,0,0.05,37.95,0)" xlink:href="#Q"/><use transform="matrix(0.05,0,0,0.05,47.95,0)" xlink:href="#R"/><use transform="matrix(0.05,0,0,0.05,56.95,0)" xlink:href="#S"/><use transform="matrix(0.05,0,0,0.05,61.95,0)" xlink:href="#T"/><use transform="matrix(0.05,0,0,0.05,65.9,0)" xlink:href="#O"/><use transform="matrix(0.05,0,0,0.05,75.9,0)" xlink:href="#U"/></g><path fill-opacity="0" d="M233-177c-1 41-23 64-60 70L243 0h-38l-65-103H63V0H30v-248c88 3 205-21 203 71zM63-129c60-2 137 13 137-47 0-61-80-42-137-45v92" id="V"/><path fill-opacity="0" d="M141-36C126-15 110 5 73 4 37 3 15-17 15-53c-1-64 63-63 125-63 3-35-9-54-41-54-24 1-41 7-42 31l-33-3c5-37 33-52 76-52 45 0 72 20 72 64v82c-1 20 7 32 28 27v20c-31 9-61-2-59-35zM48-53c0 20 12 33 32 33 41-3 63-29 60-74-43 2-92-5-92 41" id="W"/><path fill-opacity="0" d="M179-190L93 31C79 59 56 82 12 73V49c39 6 53-20 64-50L1-190h34L92-34l54-156h33" id="X"/><g id="f"><use transform="matrix(0.05,0,0,0.05,0,0)" xlink:href="#V"/><use transform="matrix(0.05,0,0,0.05,12.950000000000001,0)" xlink:href="#L"/><use transform="matrix(0.05,0,0,0.05,22.950000000000003,0)" xlink:href="#W"/><use transform="matrix(0.05,0,0,0.05,32.95,0)" xlink:href="#P"/><use transform="matrix(0.05,0,0,0.05,42.95,0)" xlink:href="#X"/></g><path fill-opacity="0" d="M30-248c118-7 216 8 213 122C240-48 200 0 122 0H30v-248zM63-27c89 8 146-16 146-99s-60-101-146-95v194" id="Y"/><path fill-opacity="0" d="M115-194c53 0 69 39 70 98 0 66-23 100-70 100C84 3 66-7 56-30L54 0H23l1-261h32v101c10-23 28-34 59-34zm-8 174c40 0 45-34 45-75 0-40-5-75-45-74-42 0-51 32-51 76 0 43 10 73 51 73" id="Z"/><g id="g"><use transform="matrix(0.05,0,0,0.05,0,0)" xlink:href="#Y"/><use transform="matrix(0.05,0,0,0.05,12.950000000000001,0)" xlink:href="#W"/><use transform="matrix(0.05,0,0,0.05,22.950000000000003,0)" xlink:href="#S"/><use transform="matrix(0.05,0,0,0.05,27.950000000000003,0)" xlink:href="#W"/><use transform="matrix(0.05,0,0,0.05,37.95,0)" xlink:href="#Z"/><use transform="matrix(0.05,0,0,0.05,47.95,0)" xlink:href="#W"/><use transform="matrix(0.05,0,0,0.05,57.95,0)" xlink:href="#K"/><use transform="matrix(0.05,0,0,0.05,66.95,0)" xlink:href="#L"/></g><path fill-opacity="0" d="M185-189c-5-48-123-54-124 2 14 75 158 14 163 119 3 78-121 87-175 55-17-10-28-26-33-46l33-7c5 56 141 63 141-1 0-78-155-14-162-118-5-82 145-84 179-34 5 7 8 16 11 25" id="aa"/><path fill-opacity="0" d="M108 0H70L1-190h34L89-25l56-165h34" id="ab"/><g id="h"><use transform="matrix(0.05,0,0,0.05,0,0)" xlink:href="#aa"/><use transform="matrix(0.05,0,0,0.05,12,0)" xlink:href="#L"/><use transform="matrix(0.05,0,0,0.05,22,0)" xlink:href="#M"/><use transform="matrix(0.05,0,0,0.05,27.950000000000003,0)" xlink:href="#ab"/><use transform="matrix(0.05,0,0,0.05,36.95,0)" xlink:href="#L"/><use transform="matrix(0.05,0,0,0.05,46.95,0)" xlink:href="#M"/></g><path fill-opacity="0" d="M87 75C49 33 22-17 22-94c0-76 28-126 65-167h31c-38 41-64 92-64 168S80 34 118 75H87" id="ac"/><path fill-opacity="0" d="M177-190C167-65 218 103 67 71c-23-6-38-20-44-43l32-5c15 47 100 32 89-28v-30C133-14 115 1 83 1 29 1 15-40 15-95c0-56 16-97 71-98 29-1 48 16 59 35 1-10 0-23 2-32h30zM94-22c36 0 50-32 50-73 0-42-14-75-50-75-39 0-46 34-46 75s6 73 46 73" id="ad"/><path fill-opacity="0" d="M33-261c38 41 65 92 65 168S71 34 33 75H2C39 34 66-17 66-93S39-220 2-261h31" id="ae"/><g id="i"><use transform="matrix(0.05,0,0,0.05,0,0)" xlink:href="#ac"/><use transform="matrix(0.05,0,0,0.05,5.95,0)" xlink:href="#ad"/><use transform="matrix(0.05,0,0,0.05,15.949999999999998,0)" xlink:href="#L"/><use transform="matrix(0.05,0,0,0.05,25.950000000000003,0)" xlink:href="#U"/><use transform="matrix(0.05,0,0,0.05,35.95,0)" xlink:href="#L"/><use transform="matrix(0.05,0,0,0.05,45.95,0)" xlink:href="#M"/><use transform="matrix(0.05,0,0,0.05,51.900000000000006,0)" xlink:href="#T"/><use transform="matrix(0.05,0,0,0.05,55.85,0)" xlink:href="#R"/><use transform="matrix(0.05,0,0,0.05,64.85000000000001,0)" xlink:href="#ae"/></g><path fill-opacity="0" d="M212-179c-10-28-35-45-73-45-59 0-87 40-87 99 0 60 29 101 89 101 43 0 62-24 78-52l27 14C228-24 195 4 139 4 59 4 22-46 18-125c-6-104 99-153 187-111 19 9 31 26 39 46" id="af"/><path fill-opacity="0" d="M24 0v-261h32V0H24" id="ag"/><g id="j"><use transform="matrix(0.06172839506172839,0,0,0.06172839506172839,0,0)" xlink:href="#af"/><use transform="matrix(0.06172839506172839,0,0,0.06172839506172839,15.987654320987653,0)" xlink:href="#ag"/><use transform="matrix(0.06172839506172839,0,0,0.06172839506172839,20.864197530864196,0)" xlink:href="#O"/><use transform="matrix(0.06172839506172839,0,0,0.06172839506172839,33.20987654320987,0)" xlink:href="#Q"/><use transform="matrix(0.06172839506172839,0,0,0.06172839506172839,45.55555555555555,0)" xlink:href="#P"/></g><path fill-opacity="0" d="M127-220V0H93v-220H8v-28h204v28h-85" id="ah"/><g id="k"><use transform="matrix(0.06172839506172839,0,0,0.06172839506172839,0,0)" xlink:href="#ah"/><use transform="matrix(0.06172839506172839,0,0,0.06172839506172839,13.518518518518517,0)" xlink:href="#N"/><use transform="matrix(0.06172839506172839,0,0,0.06172839506172839,28.33333333333333,0)" xlink:href="#J"/></g><path fill="#fff0f0" d="M205 0l-28-72H64L36 0H1l101-248h38L239 0h-34zm-38-99l-47-123c-12 45-31 82-46 123h93" id="ai"/><path fill="#fff0f0" d="M210-169c-67 3-38 105-44 169h-31v-121c0-29-5-50-35-48C34-165 62-65 56 0H25l-1-190h30c1 10-1 24 2 32 10-44 99-50 107 0 11-21 27-35 58-36 85-2 47 119 55 194h-31v-121c0-29-5-49-35-48" id="aj"/><path fill="#fff0f0" d="M141-36C126-15 110 5 73 4 37 3 15-17 15-53c-1-64 63-63 125-63 3-35-9-54-41-54-24 1-41 7-42 31l-33-3c5-37 33-52 76-52 45 0 72 20 72 64v82c-1 20 7 32 28 27v20c-31 9-61-2-59-35zM48-53c0 20 12 33 32 33 41-3 63-29 60-74-43 2-92-5-92 41" id="ak"/><path fill="#fff0f0" d="M9 0v-24l116-142H16v-24h144v24L44-24h123V0H9" id="al"/><path fill="#fff0f0" d="M100-194c62-1 85 37 85 99 1 63-27 99-86 99S16-35 15-95c0-66 28-99 85-99zM99-20c44 1 53-31 53-75 0-43-8-75-51-75s-53 32-53 75 10 74 51 75" id="am"/><path fill="#fff0f0" d="M117-194c89-4 53 116 60 194h-32v-121c0-31-8-49-39-48C34-167 62-67 57 0H25l-1-190h30c1 10-1 24 2 32 11-22 29-35 61-36" id="an"/><g id="l"><use transform="matrix(0.05,0,0,0.05,0,0)" xlink:href="#ai"/><use transform="matrix(0.05,0,0,0.05,12,0)" xlink:href="#aj"/><use transform="matrix(0.05,0,0,0.05,26.950000000000003,0)" xlink:href="#ak"/><use transform="matrix(0.05,0,0,0.05,36.95,0)" xlink:href="#al"/><use transform="matrix(0.05,0,0,0.05,45.95,0)" xlink:href="#am"/><use transform="matrix(0.05,0,0,0.05,55.95,0)" xlink:href="#an"/></g><path fill="#fff0f0" d="M212-179c-10-28-35-45-73-45-59 0-87 40-87 99 0 60 29 101 89 101 43 0 62-24 78-52l27 14C228-24 195 4 139 4 59 4 22-46 18-125c-6-104 99-153 187-111 19 9 31 26 39 46" id="ao"/><path fill="#fff0f0" d="M24 0v-261h32V0H24" id="ap"/><path fill="#fff0f0" d="M84 4C-5 8 30-112 23-190h32v120c0 31 7 50 39 49 72-2 45-101 50-169h31l1 190h-30c-1-10 1-25-2-33-11 22-28 36-60 37" id="aq"/><path fill="#fff0f0" d="M85-194c31 0 48 13 60 33l-1-100h32l1 261h-30c-2-10 0-23-3-31C134-8 116 4 85 4 32 4 16-35 15-94c0-66 23-100 70-100zm9 24c-40 0-46 34-46 75 0 40 6 74 45 74 42 0 51-32 51-76 0-42-9-74-50-73" id="ar"/><path fill="#fff0f0" d="M185-189c-5-48-123-54-124 2 14 75 158 14 163 119 3 78-121 87-175 55-17-10-28-26-33-46l33-7c5 56 141 63 141-1 0-78-155-14-162-118-5-82 145-84 179-34 5 7 8 16 11 25" id="as"/><path fill="#fff0f0" d="M100-194c63 0 86 42 84 106H49c0 40 14 67 53 68 26 1 43-12 49-29l28 8c-11 28-37 45-77 45C44 4 14-33 15-96c1-61 26-98 85-98zm52 81c6-60-76-77-97-28-3 7-6 17-6 28h103" id="at"/><path fill="#fff0f0" d="M114-163C36-179 61-72 57 0H25l-1-190h30c1 12-1 29 2 39 6-27 23-49 58-41v29" id="au"/><path fill="#fff0f0" d="M96-169c-40 0-48 33-48 73s9 75 48 75c24 0 41-14 43-38l32 2c-6 37-31 61-74 61-59 0-76-41-82-99-10-93 101-131 147-64 4 7 5 14 7 22l-32 3c-4-21-16-35-41-35" id="av"/><path fill="#fff0f0" d="M106-169C34-169 62-67 57 0H25v-261h32l-1 103c12-21 28-36 61-36 89 0 53 116 60 194h-32v-121c2-32-8-49-39-48" id="aw"/><g id="m"><use transform="matrix(0.05,0,0,0.05,0,0)" xlink:href="#ao"/><use transform="matrix(0.05,0,0,0.05,12.950000000000001,0)" xlink:href="#ap"/><use transform="matrix(0.05,0,0,0.05,16.900000000000002,0)" xlink:href="#am"/><use transform="matrix(0.05,0,0,0.05,26.900000000000002,0)" xlink:href="#aq"/><use transform="matrix(0.05,0,0,0.05,36.900000000000006,0)" xlink:href="#ar"/><use transform="matrix(0.05,0,0,0.05,46.900000000000006,0)" xlink:href="#as"/><use transform="matrix(0.05,0,0,0.05,58.900000000000006,0)" xlink:href="#at"/><use transform="matrix(0.05,0,0,0.05,68.9,0)" xlink:href="#ak"/><use transform="matrix(0.05,0,0,0.05,78.9,0)" xlink:href="#au"/><use transform="matrix(0.05,0,0,0.05,84.85000000000001,0)" xlink:href="#av"/><use transform="matrix(0.05,0,0,0.05,93.85000000000001,0)" xlink:href="#aw"/></g><g id="n"><use transform="matrix(0.05,0,0,0.05,0,0)" xlink:href="#as"/><use transform="matrix(0.05,0,0,0.05,12,0)" xlink:href="#at"/><use transform="matrix(0.05,0,0,0.05,22,0)" xlink:href="#ak"/><use transform="matrix(0.05,0,0,0.05,32,0)" xlink:href="#au"/><use transform="matrix(0.05,0,0,0.05,37.95,0)" xlink:href="#av"/><use transform="matrix(0.05,0,0,0.05,46.95,0)" xlink:href="#aw"/></g><path fill="#fff0f0" d="M30-248c118-7 216 8 213 122C240-48 200 0 122 0H30v-248zM63-27c89 8 146-16 146-99s-60-101-146-95v194" id="ax"/><path fill="#fff0f0" d="M59-47c-2 24 18 29 38 22v24C64 9 27 4 27-40v-127H5v-23h24l9-43h21v43h35v23H59v120" id="ay"/><path fill="#fff0f0" d="M135-143c-3-34-86-38-87 0 15 53 115 12 119 90S17 21 10-45l28-5c4 36 97 45 98 0-10-56-113-15-118-90-4-57 82-63 122-42 12 7 21 19 24 35" id="az"/><g id="o"><use transform="matrix(0.05,0,0,0.05,0,0)" xlink:href="#ax"/><use transform="matrix(0.05,0,0,0.05,12.950000000000001,0)" xlink:href="#am"/><use transform="matrix(0.05,0,0,0.05,22.950000000000003,0)" xlink:href="#av"/><use transform="matrix(0.05,0,0,0.05,31.950000000000003,0)" xlink:href="#aq"/><use transform="matrix(0.05,0,0,0.05,41.95,0)" xlink:href="#aj"/><use transform="matrix(0.05,0,0,0.05,56.900000000000006,0)" xlink:href="#at"/><use transform="matrix(0.05,0,0,0.05,66.9,0)" xlink:href="#an"/><use transform="matrix(0.05,0,0,0.05,76.9,0)" xlink:href="#ay"/><use transform="matrix(0.05,0,0,0.05,81.9,0)" xlink:href="#az"/></g><path fill="#27292d" d="M185-189c-5-48-123-54-124 2 14 75 158 14 163 119 3 78-121 87-175 55-17-10-28-26-33-46l33-7c5 56 141 63 141-1 0-78-155-14-162-118-5-82 145-84 179-34 5 7 8 16 11 25" id="aA"/><path fill="#27292d" d="M100-194c63 0 86 42 84 106H49c0 40 14 67 53 68 26 1 43-12 49-29l28 8c-11 28-37 45-77 45C44 4 14-33 15-96c1-61 26-98 85-98zm52 81c6-60-76-77-97-28-3 7-6 17-6 28h103" id="aB"/><path fill="#27292d" d="M210-169c-67 3-38 105-44 169h-31v-121c0-29-5-50-35-48C34-165 62-65 56 0H25l-1-190h30c1 10-1 24 2 32 10-44 99-50 107 0 11-21 27-35 58-36 85-2 47 119 55 194h-31v-121c0-29-5-49-35-48" id="aC"/><path fill="#27292d" d="M141-36C126-15 110 5 73 4 37 3 15-17 15-53c-1-64 63-63 125-63 3-35-9-54-41-54-24 1-41 7-42 31l-33-3c5-37 33-52 76-52 45 0 72 20 72 64v82c-1 20 7 32 28 27v20c-31 9-61-2-59-35zM48-53c0 20 12 33 32 33 41-3 63-29 60-74-43 2-92-5-92 41" id="aD"/><path fill="#27292d" d="M117-194c89-4 53 116 60 194h-32v-121c0-31-8-49-39-48C34-167 62-67 57 0H25l-1-190h30c1 10-1 24 2 32 11-22 29-35 61-36" id="aE"/><path fill="#27292d" d="M59-47c-2 24 18 29 38 22v24C64 9 27 4 27-40v-127H5v-23h24l9-43h21v43h35v23H59v120" id="aF"/><path fill="#27292d" d="M24-231v-30h32v30H24zM24 0v-190h32V0H24" id="aG"/><path fill="#27292d" d="M96-169c-40 0-48 33-48 73s9 75 48 75c24 0 41-14 43-38l32 2c-6 37-31 61-74 61-59 0-76-41-82-99-10-93 101-131 147-64 4 7 5 14 7 22l-32 3c-4-21-16-35-41-35" id="aH"/><g id="p"><use transform="matrix(0.06790123456790123,0,0,0.06790123456790123,0,0)" xlink:href="#aA"/><use transform="matrix(0.06790123456790123,0,0,0.06790123456790123,16.296296296296294,0)" xlink:href="#aB"/><use transform="matrix(0.06790123456790123,0,0,0.06790123456790123,29.87654320987654,0)" xlink:href="#aC"/><use transform="matrix(0.06790123456790123,0,0,0.06790123456790123,50.17901234567901,0)" xlink:href="#aD"/><use transform="matrix(0.06790123456790123,0,0,0.06790123456790123,63.75925925925925,0)" xlink:href="#aE"/><use transform="matrix(0.06790123456790123,0,0,0.06790123456790123,77.3395061728395,0)" xlink:href="#aF"/><use transform="matrix(0.06790123456790123,0,0,0.06790123456790123,84.12962962962963,0)" xlink:href="#aG"/><use transform="matrix(0.06790123456790123,0,0,0.06790123456790123,89.49382716049384,0)" xlink:href="#aH"/></g><path fill="#27292d" d="M114-163C36-179 61-72 57 0H25l-1-190h30c1 12-1 29 2 39 6-27 23-49 58-41v29" id="aI"/><path fill="#27292d" d="M106-169C34-169 62-67 57 0H25v-261h32l-1 103c12-21 28-36 61-36 89 0 53 116 60 194h-32v-121c2-32-8-49-39-48" id="aJ"/><g id="q"><use transform="matrix(0.06790123456790123,0,0,0.06790123456790123,0,0)" xlink:href="#aA"/><use transform="matrix(0.06790123456790123,0,0,0.06790123456790123,16.296296296296294,0)" xlink:href="#aB"/><use transform="matrix(0.06790123456790123,0,0,0.06790123456790123,29.87654320987654,0)" xlink:href="#aD"/><use transform="matrix(0.06790123456790123,0,0,0.06790123456790123,43.456790123456784,0)" xlink:href="#aI"/><use transform="matrix(0.06790123456790123,0,0,0.06790123456790123,51.53703703703703,0)" xlink:href="#aH"/><use transform="matrix(0.06790123456790123,0,0,0.06790123456790123,63.75925925925925,0)" xlink:href="#aJ"/></g><path fill="#27292d" d="M212-179c-10-28-35-45-73-45-59 0-87 40-87 99 0 60 29 101 89 101 43 0 62-24 78-52l27 14C228-24 195 4 139 4 59 4 22-46 18-125c-6-104 99-153 187-111 19 9 31 26 39 46" id="aK"/><path fill="#27292d" d="M100-194c62-1 85 37 85 99 1 63-27 99-86 99S16-35 15-95c0-66 28-99 85-99zM99-20c44 1 53-31 53-75 0-43-8-75-51-75s-53 32-53 75 10 74 51 75" id="aL"/><path fill="#27292d" d="M141 0L90-78 38 0H4l68-98-65-92h35l48 74 47-74h35l-64 92 68 98h-35" id="aM"/><path fill="#27292d" d="M84 4C-5 8 30-112 23-190h32v120c0 31 7 50 39 49 72-2 45-101 50-169h31l1 190h-30c-1-10 1-25-2-33-11 22-28 36-60 37" id="aN"/><path fill="#27292d" d="M24 0v-261h32V0H24" id="aO"/><g id="r"><use transform="matrix(0.06790123456790123,0,0,0.06790123456790123,0,0)" xlink:href="#aK"/><use transform="matrix(0.06790123456790123,0,0,0.06790123456790123,17.586419753086417,0)" xlink:href="#aL"/><use transform="matrix(0.06790123456790123,0,0,0.06790123456790123,31.166666666666664,0)" xlink:href="#aE"/><use transform="matrix(0.06790123456790123,0,0,0.06790123456790123,44.74691358024691,0)" xlink:href="#aF"/><use transform="matrix(0.06790123456790123,0,0,0.06790123456790123,51.537037037037045,0)" xlink:href="#aB"/><use transform="matrix(0.06790123456790123,0,0,0.06790123456790123,65.11728395061729,0)" xlink:href="#aM"/><use transform="matrix(0.06790123456790123,0,0,0.06790123456790123,77.33950617283952,0)" xlink:href="#aF"/><use transform="matrix(0.06790123456790123,0,0,0.06790123456790123,84.12962962962963,0)" xlink:href="#aN"/><use transform="matrix(0.06790123456790123,0,0,0.06790123456790123,97.7098765432099,0)" xlink:href="#aD"/><use transform="matrix(0.06790123456790123,0,0,0.06790123456790123,111.29012345679014,0)" xlink:href="#aO"/></g><path fill="#27292d" d="M233-177c-1 41-23 64-60 70L243 0h-38l-65-103H63V0H30v-248c88 3 205-21 203 71zM63-129c60-2 137 13 137-47 0-61-80-42-137-45v92" id="aP"/><path fill="#27292d" d="M135-143c-3-34-86-38-87 0 15 53 115 12 119 90S17 21 10-45l28-5c4 36 97 45 98 0-10-56-113-15-118-90-4-57 82-63 122-42 12 7 21 19 24 35" id="aQ"/><path fill="#27292d" d="M115-194c55 1 70 41 70 98S169 2 115 4C84 4 66-9 55-30l1 105H24l-1-265h31l2 30c10-21 28-34 59-34zm-8 174c40 0 45-34 45-75s-6-73-45-74c-42 0-51 32-51 76 0 43 10 73 51 73" id="aR"/><g id="s"><use transform="matrix(0.06790123456790123,0,0,0.06790123456790123,0,0)" xlink:href="#aP"/><use transform="matrix(0.06790123456790123,0,0,0.06790123456790123,17.586419753086417,0)" xlink:href="#aB"/><use transform="matrix(0.06790123456790123,0,0,0.06790123456790123,31.166666666666664,0)" xlink:href="#aQ"/><use transform="matrix(0.06790123456790123,0,0,0.06790123456790123,43.388888888888886,0)" xlink:href="#aR"/><use transform="matrix(0.06790123456790123,0,0,0.06790123456790123,56.96913580246913,0)" xlink:href="#aL"/><use transform="matrix(0.06790123456790123,0,0,0.06790123456790123,70.54938271604938,0)" xlink:href="#aE"/><use transform="matrix(0.06790123456790123,0,0,0.06790123456790123,84.12962962962962,0)" xlink:href="#aQ"/><use transform="matrix(0.06790123456790123,0,0,0.06790123456790123,96.35185185185185,0)" xlink:href="#aB"/></g><path fill="#27292d" d="M137 0h-34L2-248h35l83 218 83-218h36" id="aS"/><g id="t"><use transform="matrix(0.07407407407407407,0,0,0.07407407407407407,0,0)" xlink:href="#aS"/><use transform="matrix(0.07407407407407407,0,0,0.07407407407407407,16.296296296296298,0)" xlink:href="#aB"/><use transform="matrix(0.07407407407407407,0,0,0.07407407407407407,31.11111111111111,0)" xlink:href="#aH"/><use transform="matrix(0.07407407407407407,0,0,0.07407407407407407,44.44444444444444,0)" xlink:href="#aF"/><use transform="matrix(0.07407407407407407,0,0,0.07407407407407407,51.85185185185185,0)" xlink:href="#aL"/><use transform="matrix(0.07407407407407407,0,0,0.07407407407407407,66.66666666666666,0)" xlink:href="#aI"/></g><path fill="#27292d" d="M30-248c118-7 216 8 213 122C240-48 200 0 122 0H30v-248zM63-27c89 8 146-16 146-99s-60-101-146-95v194" id="aT"/><path fill="#27292d" d="M115-194c53 0 69 39 70 98 0 66-23 100-70 100C84 3 66-7 56-30L54 0H23l1-261h32v101c10-23 28-34 59-34zm-8 174c40 0 45-34 45-75 0-40-5-75-45-74-42 0-51 32-51 76 0 43 10 73 51 73" id="aU"/><g id="u"><use transform="matrix(0.07407407407407407,0,0,0.07407407407407407,0,0)" xlink:href="#aT"/><use transform="matrix(0.07407407407407407,0,0,0.07407407407407407,19.185185185185183,0)" xlink:href="#aD"/><use transform="matrix(0.07407407407407407,0,0,0.07407407407407407,34,0)" xlink:href="#aF"/><use transform="matrix(0.07407407407407407,0,0,0.07407407407407407,41.407407407407405,0)" xlink:href="#aD"/><use transform="matrix(0.07407407407407407,0,0,0.07407407407407407,56.22222222222221,0)" xlink:href="#aU"/><use transform="matrix(0.07407407407407407,0,0,0.07407407407407407,71.03703703703702,0)" xlink:href="#aD"/><use transform="matrix(0.07407407407407407,0,0,0.07407407407407407,85.85185185185183,0)" xlink:href="#aQ"/><use transform="matrix(0.07407407407407407,0,0,0.07407407407407407,99.18518518518516,0)" xlink:href="#aB"/></g><path fill="#27292d" d="M140-251c81 0 123 46 123 126C263-46 219 4 140 4 59 4 17-45 17-125s42-126 123-126zm0 227c63 0 89-41 89-101s-29-99-89-99c-61 0-89 39-89 99S79-25 140-24" id="aV"/><g id="v"><use transform="matrix(0.07407407407407407,0,0,0.07407407407407407,0,0)" xlink:href="#aV"/><use transform="matrix(0.07407407407407407,0,0,0.07407407407407407,20.74074074074074,0)" xlink:href="#aR"/><use transform="matrix(0.07407407407407407,0,0,0.07407407407407407,35.55555555555556,0)" xlink:href="#aB"/><use transform="matrix(0.07407407407407407,0,0,0.07407407407407407,50.37037037037037,0)" xlink:href="#aE"/></g><path fill="#27292d" d="M205 0l-28-72H64L36 0H1l101-248h38L239 0h-34zm-38-99l-47-123c-12 45-31 82-46 123h93" id="aW"/><path fill="#27292d" d="M33 0v-248h34V0H33" id="aX"/><g id="w"><use transform="matrix(0.07407407407407407,0,0,0.07407407407407407,0,0)" xlink:href="#aW"/><use transform="matrix(0.07407407407407407,0,0,0.07407407407407407,17.77777777777778,0)" xlink:href="#aX"/></g><path fill="#27292d" d="M30 0v-248h33v221h125V0H30" id="aY"/><path fill="#27292d" d="M240 0l2-218c-23 76-54 145-80 218h-23L58-218 59 0H30v-248h44l77 211c21-75 51-140 76-211h43V0h-30" id="aZ"/><g id="x"><use transform="matrix(0.06790123456790123,0,0,0.06790123456790123,0,0)" xlink:href="#aY"/><use transform="matrix(0.06790123456790123,0,0,0.06790123456790123,13.580246913580247,0)" xlink:href="#aY"/><use transform="matrix(0.06790123456790123,0,0,0.06790123456790123,27.160493827160494,0)" xlink:href="#aZ"/></g><g id="y"><use transform="matrix(0.06790123456790123,0,0,0.06790123456790123,0,0)" xlink:href="#aP"/><use transform="matrix(0.06790123456790123,0,0,0.06790123456790123,17.586419753086417,0)" xlink:href="#aB"/><use transform="matrix(0.06790123456790123,0,0,0.06790123456790123,31.166666666666664,0)" xlink:href="#aQ"/><use transform="matrix(0.06790123456790123,0,0,0.06790123456790123,43.388888888888886,0)" xlink:href="#aR"/><use transform="matrix(0.06790123456790123,0,0,0.06790123456790123,56.96913580246913,0)" xlink:href="#aL"/><use transform="matrix(0.06790123456790123,0,0,0.06790123456790123,70.54938271604938,0)" xlink:href="#aE"/><use transform="matrix(0.06790123456790123,0,0,0.06790123456790123,84.12962962962962,0)" xlink:href="#aQ"/><use transform="matrix(0.06790123456790123,0,0,0.06790123456790123,96.35185185185185,0)" xlink:href="#aB"/></g><path fill="#27292d" d="M140-251c81 0 123 46 123 126C263-53 228-8 163 1c7 30 30 48 69 40v23c-55 16-95-15-103-61C56-3 17-48 17-125c0-80 42-126 123-126zm0 227c63 0 89-41 89-101s-29-99-89-99c-61 0-89 39-89 99S79-25 140-24" id="ba"/><g id="z"><use transform="matrix(0.06790123456790123,0,0,0.06790123456790123,0,0)" xlink:href="#ba"/><use transform="matrix(0.06790123456790123,0,0,0.06790123456790123,19.012345679012345,0)" xlink:href="#aN"/><use transform="matrix(0.06790123456790123,0,0,0.06790123456790123,32.592592592592595,0)" xlink:href="#aB"/><use transform="matrix(0.06790123456790123,0,0,0.06790123456790123,46.17283950617284,0)" xlink:href="#aQ"/><use transform="matrix(0.06790123456790123,0,0,0.06790123456790123,58.39506172839506,0)" xlink:href="#aF"/><use transform="matrix(0.06790123456790123,0,0,0.06790123456790123,65.18518518518519,0)" xlink:href="#aG"/><use transform="matrix(0.06790123456790123,0,0,0.06790123456790123,70.5493827160494,0)" xlink:href="#aL"/><use transform="matrix(0.06790123456790123,0,0,0.06790123456790123,84.12962962962963,0)" xlink:href="#aE"/></g><path fill="#27292d" d="M30-248c87 1 191-15 191 75 0 78-77 80-158 76V0H30v-248zm33 125c57 0 124 11 124-50 0-59-68-47-124-48v98" id="bb"/><g id="A"><use transform="matrix(0.06790123456790123,0,0,0.06790123456790123,0,0)" xlink:href="#bb"/><use transform="matrix(0.06790123456790123,0,0,0.06790123456790123,16.296296296296294,0)" xlink:href="#aI"/><use transform="matrix(0.06790123456790123,0,0,0.06790123456790123,24.37654320987654,0)" xlink:href="#aL"/><use transform="matrix(0.06790123456790123,0,0,0.06790123456790123,37.95679012345679,0)" xlink:href="#aC"/><use transform="matrix(0.06790123456790123,0,0,0.06790123456790123,58.25925925925926,0)" xlink:href="#aR"/><use transform="matrix(0.06790123456790123,0,0,0.06790123456790123,71.83950617283949,0)" xlink:href="#aF"/></g><g id="B"><use transform="matrix(0.06790123456790123,0,0,0.06790123456790123,0,0)" xlink:href="#aY"/><use transform="matrix(0.06790123456790123,0,0,0.06790123456790123,13.580246913580247,0)" xlink:href="#aY"/><use transform="matrix(0.06790123456790123,0,0,0.06790123456790123,27.160493827160494,0)" xlink:href="#aZ"/></g><g id="C"><use transform="matrix(0.06790123456790123,0,0,0.06790123456790123,0,0)" xlink:href="#aP"/><use transform="matrix(0.06790123456790123,0,0,0.06790123456790123,17.586419753086417,0)" xlink:href="#aB"/><use transform="matrix(0.06790123456790123,0,0,0.06790123456790123,31.166666666666664,0)" xlink:href="#aQ"/><use transform="matrix(0.06790123456790123,0,0,0.06790123456790123,43.388888888888886,0)" xlink:href="#aR"/><use transform="matrix(0.06790123456790123,0,0,0.06790123456790123,56.96913580246913,0)" xlink:href="#aL"/><use transform="matrix(0.06790123456790123,0,0,0.06790123456790123,70.54938271604938,0)" xlink:href="#aE"/><use transform="matrix(0.06790123456790123,0,0,0.06790123456790123,84.12962962962962,0)" xlink:href="#aQ"/><use transform="matrix(0.06790123456790123,0,0,0.06790123456790123,96.35185185185185,0)" xlink:href="#aB"/></g><path fill="#3a414a" d="M182-182c0 78-84 86-111 141h115V0H12c-6-101 99-100 120-180 1-22-12-31-33-32-23 0-32 14-35 34l-49-3c5-45 32-70 84-70 51 0 83 22 83 69" id="bc"/><use transform="matrix(0.06172839506172839,0,0,0.06172839506172839,0,0)" xlink:href="#bc" id="D"/><path fill="#3a414a" d="M23 0v-37h61v-169l-59 37v-38l62-41h46v211h57V0H23" id="bd"/><use transform="matrix(0.06172839506172839,0,0,0.06172839506172839,0,0)" xlink:href="#bd" id="E"/><path fill="#3a414a" d="M128-127c34 4 56 21 59 58 7 91-148 94-172 28-4-9-6-17-7-26l51-5c1 24 16 35 40 36 23 0 39-12 38-36-1-31-31-36-65-34v-40c32 2 59-3 59-33 0-20-13-33-34-33s-33 13-35 32l-50-3c6-44 37-68 86-68 50 0 83 20 83 66 0 35-22 52-53 58" id="be"/><use transform="matrix(0.06172839506172839,0,0,0.06172839506172839,0,0)" xlink:href="#be" id="F"/><path fill="#3a414a" d="M165-50V0h-47v-50H5v-38l105-160h55v161h33v37h-33zm-47-37l2-116L46-87h72" id="bf"/><use transform="matrix(0.06172839506172839,0,0,0.06172839506172839,0,0)" xlink:href="#bf" id="G"/><g id="H"><use transform="matrix(0.07407407407407407,0,0,0.07407407407407407,0,0)" xlink:href="#bb"/><use transform="matrix(0.07407407407407407,0,0,0.07407407407407407,17.77777777777778,0)" xlink:href="#aB"/><use transform="matrix(0.07407407407407407,0,0,0.07407407407407407,32.592592592592595,0)" xlink:href="#aI"/><use transform="matrix(0.07407407407407407,0,0,0.07407407407407407,41.40740740740741,0)" xlink:href="#aQ"/><use transform="matrix(0.07407407407407407,0,0,0.07407407407407407,54.74074074074075,0)" xlink:href="#aL"/><use transform="matrix(0.07407407407407407,0,0,0.07407407407407407,69.55555555555556,0)" xlink:href="#aE"/><use transform="matrix(0.07407407407407407,0,0,0.07407407407407407,84.37037037037037,0)" xlink:href="#aD"/><use transform="matrix(0.07407407407407407,0,0,0.07407407407407407,99.18518518518518,0)" xlink:href="#aO"/></g><g id="I"><use transform="matrix(0.07407407407407407,0,0,0.07407407407407407,0,0)" xlink:href="#aT"/><use transform="matrix(0.07407407407407407,0,0,0.07407407407407407,19.185185185185183,0)" xlink:href="#aL"/><use transform="matrix(0.07407407407407407,0,0,0.07407407407407407,34,0)" xlink:href="#aH"/><use transform="matrix(0.07407407407407407,0,0,0.07407407407407407,47.33333333333333,0)" xlink:href="#aN"/><use transform="matrix(0.07407407407407407,0,0,0.07407407407407407,62.14814814814814,0)" xlink:href="#aC"/><use transform="matrix(0.07407407407407407,0,0,0.07407407407407407,84.29629629629628,0)" xlink:href="#aB"/><use transform="matrix(0.07407407407407407,0,0,0.07407407407407407,99.11111111111109,0)" xlink:href="#aE"/><use transform="matrix(0.07407407407407407,0,0,0.07407407407407407,113.92592592592591,0)" xlink:href="#aF"/><use transform="matrix(0.07407407407407407,0,0,0.07407407407407407,121.33333333333329,0)" xlink:href="#aQ"/></g></defs></g></svg>